<?xml version="1.0" encoding="UTF-8" standalone="no"?>
<svg
   xmlns:dc="http://purl.org/dc/elements/1.1/"
   xmlns:cc="http://creativecommons.org/ns#"
   xmlns:rdf="http://www.w3.org/1999/02/22-rdf-syntax-ns#"
   xmlns:svg="http://www.w3.org/2000/svg"
   xmlns="http://www.w3.org/2000/svg"
   xmlns:sodipodi="http://sodipodi.sourceforge.net/DTD/sodipodi-0.dtd"
   xmlns:inkscape="http://www.inkscape.org/namespaces/inkscape"
   width="450"
   height="300"
   viewBox="0 0 450 300"
   version="1.1"
   style="background-color:#2894f4">
	<g
	   style="font-style:normal;font-weight:normal;font-size:80px;line-height:125%;font-family:sans-serif;text-align:center;letter-spacing:0px;word-spacing:-70px;text-anchor:middle;display:inline;fill:#08fc04;fill-opacity:1;stroke:none;stroke-width:1px;stroke-linecap:butt;stroke-linejoin:miter;stroke-opacity:1"
	   transform="translate(-0.26366474,0)">
	  <path
		 d="m 289.24805,166.05469 q 0,18.01758 -10.19532,31.37695 -11.07421,13.97461 -28.82812,13.97461 -4.92188,0 -9.14063,-1.8457 -4.13086,-1.9336 -7.82226,-5.88868 l 0,31.20118 q 0,3.33984 0.8789,5.625 0.9668,2.37304 2.72461,3.6914 2.72461,2.19727 9.75586,2.72461 l 0,2.28516 -43.24218,0 0,-2.28516 q 3.86718,-0.26367 6.5039,-0.8789 2.63672,-0.52735 4.13086,-1.49414 4.13086,-2.63672 4.13086,-9.66797 l 0,-35.6836 q -7.29492,6.24024 -13.88672,9.22852 -6.59179,2.98828 -12.39258,2.98828 -15.99609,0 -23.90625,-12.74414 -6.67968,-10.45899 -6.67968,-27.1582 0,-18.28125 10.98632,-30.58594 11.60157,-13.35938 29.53125,-13.35938 5.53711,0 10.45899,1.49414 5.00976,1.49414 9.31641,4.30664 l 8.70117,-5.44921 q 0.70312,-0.35157 1.58203,-0.35157 1.40625,0 1.40625,3.42774 l 0,9.75586 q 0.26367,-0.26367 0.26367,-0.26367 l 0.0879,0 q 1.58203,0 2.37305,-1.9336 1.58203,-2.72461 2.19726,-3.07617 8.4375,-7.91016 21.53321,-7.91016 15.02929,0 22.93945,12.39258 3.33984,5.18555 4.92187,11.77735 1.66993,6.5039 1.66993,14.32617 z m -15.64453,7.20703 q 0,-14.0625 -4.30665,-23.20313 -5.71289,-12.21679 -18.36914,-12.21679 -3.77929,0 -7.38281,1.49414 -3.60351,1.40625 -6.85547,4.39453 -1.58203,1.49414 -2.54883,3.51562 -0.8789,2.02149 -0.8789,4.57032 l 0,39.46289 q 0,2.98828 1.58203,5.53711 1.58203,2.54882 4.57031,4.57031 3.07617,2.10937 6.15235,3.25195 3.07617,1.05469 6.06445,0.87891 11.16211,0.26367 17.13867,-11.16211 4.83399,-8.87695 4.83399,-21.09375 z m -55.45899,11.33789 0,-32.51953 q 0,-4.13086 -0.26367,-6.76758 -0.17578,-2.72461 -0.61524,-4.04297 -1.31835,-4.39453 -6.15234,-6.85547 -2.37305,-1.23047 -4.83398,-1.75781 -2.46094,-0.61523 -5.18555,-0.79102 -12.30469,0.26368 -18.7207,11.33789 -2.72461,4.7461 -4.13086,10.3711 -1.31836,5.53711 -1.31836,12.1289 0,13.44727 4.57031,22.67579 5.88867,12.30468 17.57813,12.30468 9.05273,0 16.25976,-5.44922 2.8125,-2.02148 2.8125,-10.63476 z"
	  />
	</g>
</svg>
